<?xml version="1.0" standalone="no"?><!DOCTYPE svg PUBLIC "-//W3C//DTD SVG 1.1//EN" "http://www.w3.org/Graphics/SVG/1.1/DTD/svg11.dtd">
<svg t="1650867342148" class="icon" viewBox="0 0 1024 1024" version="1.1" xmlns="http://www.w3.org/2000/svg" p-id="8882"
     width="32" height="32"><defs><style type="text/css">@font-face { font-family: feedback-iconfont; src: url("//at.alicdn.com/t/font_1031158_u69w8yhxdu.woff2?t=1630033759944") format("woff2"), url("//at.alicdn.com/t/font_1031158_u69w8yhxdu.woff?t=1630033759944") format("woff"), url("//at.alicdn.com/t/font_1031158_u69w8yhxdu.ttf?t=1630033759944") format("truetype"); }
</style></defs><path d="M692.736 0v256h256zM204.8 501.248H136.704v273.408H68.096v-68.608H0v136.704h204.8zM477.696 569.856V501.248h-204.8v204.8H409.6v68.608H272.896v68.096h204.8v-204.8H341.504v-68.096zM546.304 842.752h204.8V501.248h-204.8v341.504z m136.192-272.896v204.8H614.4v-204.8h68.096zM819.2 501.248v341.504h68.096v-272.896h68.608v272.896H1024V501.248z" fill="#666666" p-id="8883"></path><path d="M948.736 320h-320V0H139.264c-35.328 0-64 28.672-64 64v384h872.96v-128zM75.264 960c0 35.328 28.672 64 64 64h744.96c35.328 0 64-28.672 64-64V896H75.264v64z" fill="#666666" p-id="8884"></path></svg>