<svg xmlns="http://www.w3.org/2000/svg" xmlns:xlink="http://www.w3.org/1999/xlink" width="1024" height="1024" viewBox="0 0 1024 1024" fill="none"><defs><rect id="path_0" x="0" y="0" width="1024" height="1024" /><filter id="filter_2" x="36" y="713" width="532" height="158" filterUnits="userSpaceOnUse" color-interpolation-filters="sRGB"><feFlood flood-opacity="0" result="BackgroundImageFix"/>
    <feColorMatrix in="SourceAlpha" type="matrix" values="0 0 0 0 0 0 0 0 0 0 0 0 0 0 0 0 0 0 127 0"/>
    <feOffset dx="0" dy="2"/>
    <feGaussianBlur stdDeviation="2"/>
    <feColorMatrix type="matrix" values="0 0 0 0 0 0 0 0 0 0 0 0 0 0 0 0 0 0 0.25 0"/>
    <feBlend mode="normal" in2="BackgroundImageFix" result="effect1_Shadow"/>
    <feBlend mode="normal" in="SourceGraphic" in2="effect1_Shadow" result="shape"/></filter></defs><g opacity="1" transform="translate(0 0)  rotate(0 512 512)"><rect fill="#2980E3" opacity="1" transform="translate(0 0)  rotate(0 512 512)" x="0" y="0" width="1024" height="1024" rx="80" /><mask id="bg-mask-0" fill="white"><use xlink:href="#path_0"></use></mask><g mask="url(#bg-mask-0)" ><g id="矩形 1" filter="url(#filter_2)"><path id="矩形 1" fill-rule="evenodd" style="fill:#FFFFFF" transform="translate(40 717)  rotate(0 262 75)" opacity="0.98" d="M30,150L494,150C510.57,150 524,136.57 524,120L524,30C524,13.43 510.57,0 494,0L30,0C13.43,0 0,13.43 0,30L0,120C0,136.57 13.43,150 30,150Z " /><rect  id="矩形 1" style="stroke:#FFFFFF; stroke-width:1; stroke-opacity:1; stroke-dasharray:1 1" transform="translate(40 717)  rotate(0 262 75)" x="0.5" y="0.5" rx="0"  width="523" height="149" /></g><g opacity="1" transform="translate(141.5298691907734 168.45036288014478)  rotate(0 385.93606509274593 347.70543501522434)"><path id="3" fill-rule="evenodd" style="fill:#263238" transform="translate(523.1711304973593 186.80669215613773)  rotate(25 75 250.17356141901428)" opacity="1" d="M75,500.35L75,500.35C94.89,500.35 113.97,492.45 128.03,478.38C142.1,464.32 150,445.24 150,425.35L150,75C150,55.11 142.1,36.03 128.03,21.97C113.97,7.9 94.89,0 75,0L75,0C55.11,0 36.03,7.9 21.97,21.97C7.9,36.03 0,55.11 0,75L0,425.35C0,445.24 7.9,464.32 21.97,478.38C36.03,492.45 55.11,500.35 75,500.35Z " /><path id="1" fill-rule="evenodd" style="fill:#263238" transform="translate(140.34668696640884 -7.0032795283411815)  rotate(25 60 345.3902326487011)" opacity="1" d="M50,690.78L70,690.78C97.61,690.78 120,668.39 120,640.78L120,50C120,22.39 97.61,0 70,0L50,0C22.39,0 0,22.39 0,50L0,640.78C0,668.39 22.39,690.78 50,690.78Z " /><path id="2" fill-rule="evenodd" style="fill:#263238" transform="translate(364.8650864758571 72.86489739557044)  rotate(-20 60 282.75300816592306)" opacity="1" d="M0,565.51L120,565.51L120,0L0,0L0,565.51Z " /></g></g></g></svg>