<?xml version="1.0" standalone="no"?><!DOCTYPE svg PUBLIC "-//W3C//DTD SVG 1.1//EN" "http://www.w3.org/Graphics/SVG/1.1/DTD/svg11.dtd">
<svg t="1650275090014" class="icon" viewBox="0 0 1024 1024" version="1.1" xmlns="http://www.w3.org/2000/svg"
     p-id="19658"
     width="20" height="20"><defs><style type="text/css">@font-face { font-family: feedback-iconfont; src: url("//at.alicdn.com/t/font_1031158_u69w8yhxdu.woff2?t=1630033759944") format("woff2"), url("//at.alicdn.com/t/font_1031158_u69w8yhxdu.woff?t=1630033759944") format("woff"), url("//at.alicdn.com/t/font_1031158_u69w8yhxdu.ttf?t=1630033759944") format("truetype"); }
</style></defs><path d="M769.642871 459.444604h251.230533C997.806026 218.464462 802.968636 23.635068 561.988494 0.559694v251.238529a262.704255 262.704255 0 0 1 207.654377 207.646381z m-310.198267-207.646381V0.559694C218.464462 23.635068 23.635068 218.464462 0.559694 459.444604h251.238529a262.704255 262.704255 0 0 1 207.646381-207.646381z m102.54389 517.844648v251.230533c243.546738-23.067378 435.817532-217.904768 461.451506-461.44351H772.209467c-23.075374 107.669086-105.110486 189.704199-210.220973 210.212977zM251.798223 561.988494H0.559694c23.075374 243.546738 217.904768 435.817532 461.451505 461.451506V772.209467c-107.669086-23.075374-189.704199-105.110486-210.212976-210.220973z" p-id="19659"></path></svg>