<?xml version="1.0" standalone="no"?><!DOCTYPE svg PUBLIC "-//W3C//DTD SVG 1.1//EN" "http://www.w3.org/Graphics/SVG/1.1/DTD/svg11.dtd">
<svg t="1650869469866" class="icon" viewBox="0 0 1024 1024" version="1.1" xmlns="http://www.w3.org/2000/svg"
     p-id="10030"
     width="32" height="32"><defs><style type="text/css">@font-face { font-family: feedback-iconfont; src: url("//at.alicdn.com/t/font_1031158_u69w8yhxdu.woff2?t=1630033759944") format("woff2"), url("//at.alicdn.com/t/font_1031158_u69w8yhxdu.woff?t=1630033759944") format("woff"), url("//at.alicdn.com/t/font_1031158_u69w8yhxdu.ttf?t=1630033759944") format("truetype"); }
</style></defs><path d="M253.12 160l-3.072 28.576a70.272 70.272 0 0 1-61.376 61.248L160 252.736V774.08l27.84 3.712c32.736 4.288 57.28 27.584 62.4 59.36l4.384 26.88H776.64l2.368-29.376a64.736 64.736 0 0 1 56.544-58.048l28.448-3.2V254.368l-26.88-4.32c-31.648-5.12-56.096-30.4-59.424-61.44L774.624 160H253.12z m54.208 64h413.12A135.104 135.104 0 0 0 800 306.016v413.6A131.456 131.456 0 0 0 721.376 800H306.24A134.88 134.88 0 0 0 224 720.8V307.2A134.08 134.08 0 0 0 307.328 224z m21.472 96c-6.176 0-12.096 12.384-1.184 15.2 20.256 5.312 35.392 13.152 35.392 41.792v130.496c0 107.552-0.288 148.16-9.824 164.8-10.144 13.312-14.208 13.376-26.816 17.76-7.168 0-9.76 13.952 0 13.952 44.896 0 23.232-2.56 68.16-2.56 44.224 0 25.92 2.56 69.344 2.56 7.424 0 6.08-10.56 0-12.64-28.16-9.792-28.256-13.248-30.4-16.48-12.832-20.096-7.296-108.928-7.296-147.616 0-6.848 7.936-16.512 17.088-16.512h137.472c9.152 0 17.088 9.664 17.088 16.512 0 38.688 5.536 127.488-7.328 147.616-2.112 3.36-2.176 6.72-30.4 16.48-6.016 2.08-7.264 12.64 0 12.64 43.424 0 25.12-2.56 69.408-2.56 44.896 0 23.232 2.56 68.128 2.56 9.664 0 7.168-13.952 0-13.952-12.736-4.384-16.672-4.576-26.816-17.728-9.632-16.64-9.824-57.28-9.824-164.8V376.96c0-28.48 15.104-36.512 35.392-41.792 11.008-2.816 4.8-15.2-1.28-15.2-45.12 0-25.44 2.56-70.592 2.56-40.416 0-20.384-2.56-60.8-2.56-4.096 0-10.56 10.72-1.28 13.952 6.08 2.08 34.208 4.768 34.208 50.688 0 58.784 0.192 69.952-1.28 86.72 0 1.696-2.88 16.512-15.872 16.512h-134.976c-12.992 0-15.872-14.848-15.872-16.512-1.504-16.736-1.28-27.936-1.28-86.72 0-45.92 28.16-48.64 34.208-50.688 9.28-3.232 2.848-13.952-1.28-13.952-40.384 0-20.416 2.56-60.864 2.56-45.12 0-25.472-2.56-70.624-2.56z" p-id="10031"></path></svg>