<?xml version="1.0" standalone="no"?><!DOCTYPE svg PUBLIC "-//W3C//DTD SVG 1.1//EN" "http://www.w3.org/Graphics/SVG/1.1/DTD/svg11.dtd"><svg t="1664639111632" class="icon" viewBox="0 0 1228 1024" version="1.1" xmlns="http://www.w3.org/2000/svg" p-id="6077" xmlns:xlink="http://www.w3.org/1999/xlink" width="23.984375" height="20"><path d="M1142.278144 157.696H586.758144l-29.696-96.256A86.528 86.528 0 0 0 474.630144 0H86.534144A87.552 87.552 0 0 0 0.006144 88.576v846.848A87.552 87.552 0 0 0 86.534144 1024h1016.832A125.44 125.44 0 0 0 1228.806144 898.56V246.272a87.552 87.552 0 0 0-86.528-88.576z m-1055.744 0V88.576h388.096l21.504 69.12z m1099.264 640H998.406144v182.272a43.008 43.008 0 1 1-86.528 0v-182.272h-177.664a44.544 44.544 0 0 1 0-88.576h177.664V517.12a43.008 43.008 0 1 1 86.528 0v192h187.392a44.544 44.544 0 0 1 0 88.576z" fill="#5E5C5C" p-id="6078"></path></svg>